<svg width="33" height="32" viewBox="0 0 33 32" fill="none" xmlns="http://www.w3.org/2000/svg"><path fill-rule="evenodd" clip-rule="evenodd" d="M7.74595 21.6344V12.5172C7.74595 11.2942 6.74529 10.2935 5.52225 10.2935H4.78199V4.51192C4.78199 3.95599 4.44843 3.62244 3.8925 3.62244C3.33658 3.62244 3.00303 4.06718 3.00303 4.51192V10.2935H2.26276C1.03973 10.2935 0.0390625 11.2942 0.0390625 12.5172V21.6344C0.0390625 22.8574 1.03973 23.8581 2.26276 23.8581H3.00303V27.4878C3.00303 28.0437 3.33658 28.3773 3.8925 28.3773C4.44843 28.3773 4.78199 27.9325 4.78199 27.4878V23.8581H5.52225C6.74529 23.8581 7.74595 22.8574 7.74595 21.6344ZM13.0236 11.2932L13.0236 18.5554C13.0236 19.7784 14.0242 20.7791 15.2473 20.7791H15.9875V27.4882C15.9875 28.0441 16.3211 28.3777 16.877 28.3777C17.4329 28.3777 17.7665 27.933 17.7665 27.4882L17.7665 20.7791H18.5068C19.7298 20.7791 20.7305 19.7784 20.7305 18.5554L20.7305 11.2932C20.7305 10.0702 19.7298 9.06954 18.5068 9.06954L17.7665 9.06954V5.43983C17.7665 4.8839 17.433 4.55035 16.877 4.55035C16.3211 4.55035 15.9875 4.99509 15.9875 5.43983V9.06954H15.2473C14.0242 9.06954 13.0236 10.0702 13.0236 11.2932Z" fill="url(#paint0_linear_1176_6336)"></path><defs><linearGradient id="paint0_linear_1176_6336" x1="10.3848" y1="4.56378" x2="10.3848" y2="27.4362" gradientUnits="userSpaceOnUse"><stop stop-color="#84A1FF"></stop><stop offset="1" stop-color="#372DFF"></stop></linearGradient></defs></svg>