<svg width="121" height="52" viewBox="0 0 121 52" fill="none" xmlns="http://www.w3.org/2000/svg"><rect x="0.0241699" width="120" height="52" rx="8" fill="url(#paint0_linear_673_11001)"></rect><path fill-rule="evenodd" clip-rule="evenodd" d="M39.005 13.4149C36.0785 10.9504 32.3819 9.56421 28.4599 9.56421C19.3968 9.56421 12.0242 16.9368 12.0242 25.9999C12.0242 35.063 19.3968 42.4356 28.4599 42.4356C36.7416 42.4356 43.7535 36.252 44.7716 28.053C44.8674 27.2791 44.3189 26.5766 43.5469 26.4808C42.7749 26.3869 42.0724 26.9316 41.9766 27.7055C41.1332 34.4958 35.3215 39.6181 28.4599 39.6181C20.9502 39.6181 14.8417 33.5096 14.8417 25.9999C14.8417 18.4902 20.9502 12.3818 28.4599 12.3818C31.5648 12.3818 34.5063 13.4186 36.875 15.2932H35.1018C34.3241 15.2932 33.693 15.9244 33.693 16.702C33.693 17.4796 34.3241 18.1108 35.1018 18.1108H40.4138C41.1914 18.1108 41.8226 17.4796 41.8226 16.702V11.3881C41.8226 10.6105 41.1914 9.97933 40.4138 9.97933C39.6362 9.97933 39.005 10.6105 39.005 11.3881V13.4149ZM29.2848 24.5923C31.7605 24.5923 33.746 26.7318 33.4886 29.2601C33.2895 31.2173 31.6666 32.6806 29.7544 32.9811V33.5146C29.7544 34.2922 29.1233 34.9233 28.3457 34.9233C27.568 34.9233 26.9369 34.2922 26.9369 33.5146V33.045H25.9996C25.2219 33.045 24.5908 32.4139 24.5908 31.6362C24.5908 30.8586 25.2219 30.2274 25.9996 30.2274H29.2848C30.0625 30.2274 30.6936 29.5944 30.6936 28.8187C30.6936 28.0429 30.0625 27.4099 29.2848 27.4099H27.6563C25.4455 27.4099 23.4262 25.8245 23.2027 23.625C22.9623 21.262 24.6885 19.2615 26.9369 19.008V18.4876C26.9369 17.71 27.568 17.0789 28.3457 17.0789C29.1233 17.0789 29.7544 17.71 29.7544 18.4876V18.9572H30.7011C31.4788 18.9572 32.1099 19.5884 32.1099 20.366C32.1099 21.1437 31.4788 21.7748 30.7011 21.7748H27.4065C26.6288 21.7748 25.9977 22.4059 25.9977 23.1836C25.9977 23.9612 26.6288 24.5923 27.4065 24.5923H29.2848Z" fill="url(#paint1_linear_673_11001)"></path><defs><linearGradient id="paint0_linear_673_11001" x1="0.0241717" y1="-2.49399" x2="120.024" y2="-2.49399" gradientUnits="userSpaceOnUse"><stop stop-color="#0032DA" stop-opacity="0.4"></stop><stop offset="1" stop-color="#0032DA" stop-opacity="0"></stop></linearGradient><linearGradient id="paint1_linear_673_11001" x1="28.4033" y1="9.56421" x2="28.4033" y2="42.4356" gradientUnits="userSpaceOnUse"><stop stop-color="#77CCFF"></stop><stop offset="1" stop-color="#3E52FF"></stop></linearGradient></defs></svg>