<svg width="33" height="32" viewBox="0 0 33 32" fill="none" xmlns="http://www.w3.org/2000/svg"><path d="M14.4227 22.9121C13.8947 23.767 13.1214 24.4711 12.103 25.0118C11.0783 25.5524 9.87126 25.8542 8.46935 25.9108V28.2655C8.46935 28.7533 8.0739 29.1488 7.58609 29.1488C7.09828 29.1488 6.70283 28.7533 6.70283 28.2655V25.8793C4.7477 25.7159 3.17606 25.1312 1.97533 24.1254C0.774592 23.1195 0.139648 21.7553 0.0704954 20.0203H5.09975C5.21291 21.1267 5.74727 21.8371 6.70283 22.1514V17.7822C5.2632 17.4113 4.11905 17.053 3.25779 16.7009C2.40281 16.3489 1.64843 15.7894 1.00719 15.0161C0.359678 14.2429 0.0390625 13.1805 0.0390625 11.8351C0.0390625 10.1566 0.661434 8.8113 1.90617 7.79916C3.15092 6.78702 4.7477 6.21495 6.70283 6.08293V3.73446C6.70283 3.24665 7.09828 2.8512 7.58609 2.8512C8.0739 2.8512 8.46935 3.24665 8.46935 3.73446V6.08922C10.4056 6.24009 11.9333 6.7996 13.0585 7.77402C14.1838 8.74844 14.8062 10.1063 14.9382 11.8351H9.87755C9.76439 10.8419 9.29918 10.1943 8.46935 9.89888V14.1863C9.99699 14.6075 11.1789 14.991 12.0087 15.3179C12.8385 15.6511 13.5803 16.198 14.2341 16.965C14.8879 17.7319 15.2148 18.7755 15.2148 20.102C15.2148 21.1015 14.9445 22.0697 14.4227 22.9121ZM5.46437 12.7844C5.74727 13.0987 6.16218 13.3754 6.69654 13.6142V9.77315C6.18104 9.86744 5.77242 10.0623 5.48323 10.3704C5.18776 10.6721 5.04317 11.0933 5.04317 11.6277C5.03689 12.0803 5.18148 12.4701 5.46437 12.7844ZM9.77696 21.573C10.0976 21.221 10.261 20.7872 10.261 20.2717C10.261 19.7939 10.1101 19.4042 9.80211 19.0961C9.50035 18.7944 9.054 18.5303 8.46307 18.3103V22.2331C9.01628 22.1451 9.45635 21.9251 9.77696 21.573Z" fill="url(#paint0_linear_1176_6346)"></path><defs><linearGradient id="paint0_linear_1176_6346" x1="7.62695" y1="3.8512" x2="7.62695" y2="28.1488" gradientUnits="userSpaceOnUse"><stop stop-color="#84A1FF"></stop><stop offset="1" stop-color="#372DFF"></stop></linearGradient></defs></svg>