<svg width="121" height="52" viewBox="0 0 121 52" fill="none" xmlns="http://www.w3.org/2000/svg"><rect x="0.0241699" width="120" height="52" rx="8" fill="url(#paint0_linear_673_10955)"></rect><path d="M38.9411 10.8186H33.0911C32.8601 10.8198 32.6346 10.8893 32.443 11.0183C32.2515 11.1474 32.1024 11.3303 32.0146 11.544C31.925 11.7571 31.9006 11.9919 31.9443 12.2189C31.988 12.4459 32.098 12.6548 32.2603 12.8193L34.3664 14.9136L28.411 20.869L24.5617 17.0079C24.4529 16.8983 24.3235 16.8112 24.181 16.7518C24.0384 16.6924 23.8855 16.6618 23.731 16.6618C23.5766 16.6618 23.4236 16.6924 23.2811 16.7518C23.1385 16.8112 23.0091 16.8983 22.9003 17.0079L12.3703 27.538C12.2606 27.6467 12.1736 27.7762 12.1142 27.9187C12.0548 28.0613 12.0242 28.2142 12.0242 28.3687C12.0242 28.5231 12.0548 28.6761 12.1142 28.8186C12.1736 28.9612 12.2606 29.0906 12.3703 29.1994C12.479 29.3091 12.6084 29.3961 12.751 29.4555C12.8936 29.5149 13.0465 29.5455 13.201 29.5455C13.3554 29.5455 13.5083 29.5149 13.6509 29.4555C13.7935 29.3961 13.9229 29.3091 14.0317 29.1994L23.731 19.4883L27.5803 23.3494C27.6891 23.459 27.8185 23.5461 27.9611 23.6055C28.1036 23.6649 28.2566 23.6954 28.411 23.6954C28.5655 23.6954 28.7184 23.6649 28.861 23.6055C29.0036 23.5461 29.133 23.459 29.2417 23.3494L36.0161 16.5633L38.1104 18.6693C38.2197 18.7778 38.3494 18.8636 38.4919 18.9218C38.6345 18.98 38.7871 19.0095 38.9411 19.0086C39.0946 19.0126 39.2468 18.9805 39.3857 18.915C39.5993 18.8273 39.7822 18.6782 39.9113 18.4867C40.0404 18.2951 40.1099 18.0696 40.1111 17.8386V11.9886C40.1111 11.6783 39.9878 11.3807 39.7684 11.1613C39.549 10.9419 39.2514 10.8186 38.9411 10.8186Z" fill="url(#paint1_linear_673_10955)"></path><path fill-rule="evenodd" clip-rule="evenodd" d="M33.9769 23.3276H38.1772C38.7571 23.3276 39.2273 23.7978 39.2273 24.3777V40.1289C39.2273 40.7088 38.7571 41.1789 38.1772 41.1789H33.9769C33.3969 41.1789 32.9268 40.7088 32.9268 40.1289V24.3777C32.9268 23.7978 33.3969 23.3276 33.9769 23.3276ZM28.7277 27.5307H24.5274C23.9475 27.5307 23.4773 28.0009 23.4773 28.5808V40.1317C23.4773 40.7116 23.9475 41.1817 24.5274 41.1817H28.7277C29.3076 41.1817 29.7778 40.7116 29.7778 40.1317V28.5808C29.7778 28.0009 29.3076 27.5307 28.7277 27.5307ZM19.2765 31.7272H15.0762C14.4963 31.7272 14.0261 32.1973 14.0261 32.7773V40.1278C14.0261 40.7078 14.4963 41.1779 15.0762 41.1779H19.2765C19.8564 41.1779 20.3266 40.7078 20.3266 40.1278V32.7773C20.3266 32.1973 19.8564 31.7272 19.2765 31.7272Z" fill="url(#paint2_linear_673_10955)"></path><defs><linearGradient id="paint0_linear_673_10955" x1="0.0241717" y1="-2.49399" x2="120.024" y2="-2.49399" gradientUnits="userSpaceOnUse"><stop stop-color="#0032DA" stop-opacity="0.4"></stop><stop offset="1" stop-color="#0032DA" stop-opacity="0"></stop></linearGradient><linearGradient id="paint1_linear_673_10955" x1="34.8433" y1="9.25184" x2="12.0242" y2="28.5705" gradientUnits="userSpaceOnUse"><stop stop-color="#7ACDFF"></stop><stop offset="0.704346" stop-color="#2D2DD7"></stop><stop offset="1" stop-color="#1007B1" stop-opacity="0"></stop></linearGradient><linearGradient id="paint2_linear_673_10955" x1="33.8746" y1="23.3276" x2="33.8746" y2="41.1789" gradientUnits="userSpaceOnUse"><stop stop-color="#79CFFF"></stop><stop offset="1" stop-color="#1E34F3"></stop></linearGradient></defs></svg>