<svg width="33" height="32" viewBox="0 0 33 32" fill="none" xmlns="http://www.w3.org/2000/svg"><path fill-rule="evenodd" clip-rule="evenodd" d="M11.1685 2.8489L15.3656 2.84884L15.3657 7.04597L11.1685 7.04602L11.1685 2.8489ZM4.9009 5.7361L8.2053 3.82836L10.113 7.13276L6.80864 9.04051L4.9009 5.7361ZM9.09451 25.8519L7.11184 24.7072L5.96714 26.6898L7.94982 27.8345L9.09451 25.8519ZM12.2837 26.813L14.1915 26.813L14.1915 28.7208L12.2837 28.7208L12.2837 26.813ZM19.2773 25.237L17.9556 26.0001L18.7187 27.3219L20.0404 26.5588L19.2773 25.237ZM2.71145 8.28859L5.68546 10.0056L3.96841 12.9796L0.994405 11.2626L2.71145 8.28859ZM3.28148 14.8125L0.229027 14.8125L0.229066 17.865L3.28152 17.8649L3.28148 14.8125ZM1.57668 21.5711L3.88976 20.2356L5.22518 22.5487L2.9121 23.8841L1.57668 21.5711ZM23.9469 21.8714L22.9556 21.2991L22.3832 22.2904L23.3746 22.8628L23.9469 21.8714ZM24.3677 15.9909L25.1308 15.9909L25.1308 16.754L24.3677 16.754L24.3677 15.9909ZM23.1727 10.3854L22.8423 10.5762L23.0331 10.9066L23.3635 10.7159L23.1727 10.3854Z" fill="url(#paint0_radial_1176_6355)"></path><defs><radialGradient id="paint0_radial_1176_6355" cx="0" cy="0" r="1" gradientUnits="userSpaceOnUse" gradientTransform="translate(20.4999 5.9999) rotate(132.357) scale(23.0054 2984.89)"><stop stop-color="#81A2FF"></stop><stop offset="1" stop-color="#2419FF"></stop></radialGradient></defs></svg>