<svg width="120" height="52" viewBox="0 0 120 52" fill="none" xmlns="http://www.w3.org/2000/svg"><rect width="120" height="52" rx="8" fill="url(#paint0_linear_1711_16752)"></rect><path d="M25.9543 10.2501C25.9543 9.83585 26.29 9.50006 26.7042 9.50006L30.5577 9.50001C30.9719 9.5 31.3077 9.83579 31.3077 10.25L31.3078 14.1035C31.3078 14.5177 30.972 14.8535 30.5578 14.8535L26.7043 14.8535C26.2901 14.8536 25.9543 14.5178 25.9543 14.1036L25.9543 10.2501Z" fill="url(#paint1_linear_1711_16752)" fill-opacity="0.9"></path><path d="M18.3338 13.8322C18.1267 13.4735 18.2496 13.0148 18.6083 12.8077L21.5241 11.1244C21.8828 10.9173 22.3415 11.0402 22.5486 11.3989L24.232 14.3146C24.4391 14.6734 24.3162 15.1321 23.9574 15.3392L21.0417 17.0225C20.683 17.2296 20.2243 17.1067 20.0172 16.748L18.3338 13.8322Z" fill="url(#paint2_linear_1711_16752)" fill-opacity="0.9"></path><path d="M20.4038 38.0301C20.6109 37.6714 21.0696 37.5485 21.4283 37.7556L22.6582 38.4657C23.0169 38.6728 23.1398 39.1315 22.9327 39.4902L22.2226 40.7201C22.0155 41.0788 21.5568 41.2017 21.1981 40.9946L19.9682 40.2845C19.6095 40.0774 19.4866 39.6187 19.6937 39.26L20.4038 38.0301Z" fill="url(#paint3_linear_1711_16752)" fill-opacity="0.9"></path><path d="M27.3754 40.8166C27.3754 40.4024 27.7112 40.0666 28.1254 40.0666L29.0588 40.0666C29.473 40.0666 29.8088 40.4024 29.8088 40.8166L29.8088 41.75C29.8088 42.1642 29.4731 42.5 29.0588 42.5L28.1254 42.5C27.7112 42.5 27.3754 42.1642 27.3754 41.75L27.3754 40.8166Z" fill="url(#paint4_linear_1711_16752)" fill-opacity="0.9"></path><path d="M34.9849 39.6793C34.7778 39.3206 34.9007 38.8619 35.2594 38.6548L35.6463 38.4314C36.005 38.2243 36.4637 38.3472 36.6708 38.7059L36.8942 39.0928C37.1013 39.4515 36.9784 39.9102 36.6196 40.1173L36.2328 40.3407C35.8741 40.5478 35.4154 40.4249 35.2083 40.0662L34.9849 39.6793Z" fill="url(#paint5_linear_1711_16752)" fill-opacity="0.9"></path><path d="M14.7918 17.0879C14.9989 16.7292 15.4576 16.6063 15.8164 16.8134L18.3107 18.2535C18.6694 18.4606 18.7923 18.9193 18.5852 19.278L17.1451 21.7723C16.938 22.1311 16.4793 22.254 16.1206 22.0469L13.6263 20.6068C13.2675 20.3997 13.1446 19.941 13.3517 19.5822L14.7918 17.0879Z" fill="url(#paint6_linear_1711_16752)" fill-opacity="0.9"></path><path d="M12 25.5097C12 25.0955 12.3358 24.7597 12.75 24.7597L15.1434 24.7597C15.5577 24.7597 15.8934 25.0955 15.8935 25.5097L15.8935 27.9031C15.8935 28.3173 15.5577 28.6531 15.1435 28.6531L12.75 28.6532C12.3358 28.6532 12 28.3174 12 27.9032L12 25.5097Z" fill="url(#paint7_linear_1711_16752)" fill-opacity="0.9"></path><path d="M14.0927 34.0299C13.8856 33.6712 14.0085 33.2125 14.3672 33.0054L16.0185 32.0521C16.3773 31.845 16.836 31.9679 17.0431 32.3266L17.9964 33.9779C18.2035 34.3366 18.0806 34.7953 17.7219 35.0024L16.0706 35.9558C15.7119 36.1629 15.2532 36.04 15.0461 35.6813L14.0927 34.0299Z" fill="url(#paint8_linear_1711_16752)" fill-opacity="0.9"></path><path d="M40.6233 33.6658C40.8249 33.3166 41.2714 33.1969 41.6206 33.3985C41.9698 33.6001 42.0894 34.0466 41.8878 34.3958C41.6862 34.745 41.2397 34.8646 40.8905 34.663C40.5414 34.4614 40.4217 34.0149 40.6233 33.6658Z" fill="url(#paint9_linear_1711_16752)" fill-opacity="0.9"></path><path d="M42.79 26.7494C42.79 26.4806 43.0079 26.2627 43.2767 26.2627C43.5455 26.2627 43.7633 26.4806 43.7634 26.7494C43.7634 27.0182 43.5455 27.2361 43.2767 27.2361C43.0079 27.2361 42.79 27.0182 42.79 26.7494Z" fill="url(#paint10_linear_1711_16752)" fill-opacity="0.9"></path><path d="M40.9645 19.567C40.8974 19.4506 40.9372 19.3018 41.0536 19.2346C41.17 19.1674 41.3188 19.2073 41.386 19.3236C41.4532 19.44 41.4133 19.5889 41.297 19.656C41.1806 19.7232 41.0317 19.6834 40.9645 19.567Z" fill="url(#paint11_linear_1711_16752)" fill-opacity="0.9"></path><defs><linearGradient id="paint0_linear_1711_16752" x1="1.80152e-06" y1="-2.49399" x2="120" y2="-2.49399" gradientUnits="userSpaceOnUse"><stop stop-color="#0032DA" stop-opacity="0.4"></stop><stop offset="1" stop-color="#0032DA" stop-opacity="0"></stop></linearGradient><linearGradient id="paint1_linear_1711_16752" x1="27.8817" y1="9.5" x2="27.8817" y2="42.5" gradientUnits="userSpaceOnUse"><stop stop-color="#77CBFF"></stop><stop offset="1" stop-color="#3F54FF"></stop></linearGradient><linearGradient id="paint2_linear_1711_16752" x1="27.8817" y1="9.5" x2="27.8817" y2="42.5" gradientUnits="userSpaceOnUse"><stop stop-color="#77CBFF"></stop><stop offset="1" stop-color="#3F54FF"></stop></linearGradient><linearGradient id="paint3_linear_1711_16752" x1="27.8817" y1="9.5" x2="27.8817" y2="42.5" gradientUnits="userSpaceOnUse"><stop stop-color="#77CBFF"></stop><stop offset="1" stop-color="#3F54FF"></stop></linearGradient><linearGradient id="paint4_linear_1711_16752" x1="27.8817" y1="9.5" x2="27.8817" y2="42.5" gradientUnits="userSpaceOnUse"><stop stop-color="#77CBFF"></stop><stop offset="1" stop-color="#3F54FF"></stop></linearGradient><linearGradient id="paint5_linear_1711_16752" x1="27.8817" y1="9.5" x2="27.8817" y2="42.5" gradientUnits="userSpaceOnUse"><stop stop-color="#77CBFF"></stop><stop offset="1" stop-color="#3F54FF"></stop></linearGradient><linearGradient id="paint6_linear_1711_16752" x1="27.8817" y1="9.5" x2="27.8817" y2="42.5" gradientUnits="userSpaceOnUse"><stop stop-color="#77CBFF"></stop><stop offset="1" stop-color="#3F54FF"></stop></linearGradient><linearGradient id="paint7_linear_1711_16752" x1="27.8817" y1="9.5" x2="27.8817" y2="42.5" gradientUnits="userSpaceOnUse"><stop stop-color="#77CBFF"></stop><stop offset="1" stop-color="#3F54FF"></stop></linearGradient><linearGradient id="paint8_linear_1711_16752" x1="27.8817" y1="9.5" x2="27.8817" y2="42.5" gradientUnits="userSpaceOnUse"><stop stop-color="#77CBFF"></stop><stop offset="1" stop-color="#3F54FF"></stop></linearGradient><linearGradient id="paint9_linear_1711_16752" x1="27.8817" y1="9.5" x2="27.8817" y2="42.5" gradientUnits="userSpaceOnUse"><stop stop-color="#77CBFF"></stop><stop offset="1" stop-color="#3F54FF"></stop></linearGradient><linearGradient id="paint10_linear_1711_16752" x1="27.8817" y1="9.5" x2="27.8817" y2="42.5" gradientUnits="userSpaceOnUse"><stop stop-color="#77CBFF"></stop><stop offset="1" stop-color="#3F54FF"></stop></linearGradient><linearGradient id="paint11_linear_1711_16752" x1="27.8817" y1="9.5" x2="27.8817" y2="42.5" gradientUnits="userSpaceOnUse"><stop stop-color="#77CBFF"></stop><stop offset="1" stop-color="#3F54FF"></stop></linearGradient></defs></svg>