<svg xmlns="http://www.w3.org/2000/svg" width="120" height="53" fill="none"><rect width="120" height="52" fill="url(#a)" rx="8"></rect><g filter="url(#b)"><rect width="15.88" height="15.353" x="12" y="26.662" fill="url(#c)" fill-opacity="0.6" rx="2" shape-rendering="crispEdges"></rect></g><g filter="url(#d)"><rect width="20.218" height="19.546" x="16" y="18.468" fill="url(#e)" rx="2"></rect></g><g filter="url(#f)"><rect width="24.748" height="23.927" x="21" y="9.985" fill="url(#g)" rx="2.523"></rect></g><path fill="url(#h)" d="M22.883 31.026a1 1 0 0 0 1.415 1.415l-1.415-1.415Zm18.67-16.256a1 1 0 0 0-1-1h-9a1 1 0 1 0 0 2h8v8a1 1 0 0 0 2 0v-9ZM24.298 32.44 41.26 15.477l-1.415-1.415-16.963 16.964 1.415 1.415Z"></path><defs><linearGradient id="a" x1="0" x2="120" y1="-2.494" y2="-2.494" gradientUnits="userSpaceOnUse"><stop stop-color="#0032DA" stop-opacity="0.4"></stop><stop offset="1" stop-color="#0032DA" stop-opacity="0"></stop></linearGradient><linearGradient id="c" x1="24.535" x2="12" y1="30.605" y2="38.285" gradientUnits="userSpaceOnUse"><stop stop-color="#0426BC"></stop><stop offset="1" stop-color="#183ADE"></stop></linearGradient><linearGradient id="e" x1="32.816" x2="17.545" y1="21.203" y2="38.015" gradientUnits="userSpaceOnUse"><stop stop-color="#5567FF"></stop><stop offset="1" stop-color="#142ACF"></stop></linearGradient><linearGradient id="g" x1="45.748" x2="22.532" y1="9.985" y2="32.836" gradientUnits="userSpaceOnUse"><stop offset="0.022" stop-color="#79CEFF"></stop><stop offset="1" stop-color="#4154F1"></stop></linearGradient><linearGradient id="h" x1="40.553" x2="23.59" y1="14.77" y2="31.733" gradientUnits="userSpaceOnUse"><stop stop-color="#213BFF"></stop><stop offset="1" stop-color="#445AF1"></stop></linearGradient><filter id="b" width="35.88" height="35.353" x="2" y="16.662" color-interpolation-filters="sRGB" filterUnits="userSpaceOnUse"><feFlood flood-opacity="0" result="BackgroundImageFix"></feFlood><feColorMatrix in="SourceAlpha" result="hardAlpha" values="0 0 0 0 0 0 0 0 0 0 0 0 0 0 0 0 0 0 127 0"></feColorMatrix><feOffset></feOffset><feGaussianBlur stdDeviation="5"></feGaussianBlur><feComposite in2="hardAlpha" operator="out"></feComposite><feColorMatrix values="0 0 0 0 0 0 0 0 0 0 0 0 0 0 0 0 0 0 0.1 0"></feColorMatrix><feBlend in2="BackgroundImageFix" result="effect1_dropShadow_1296_5165"></feBlend><feBlend in="SourceGraphic" in2="effect1_dropShadow_1296_5165" result="shape"></feBlend></filter><filter id="d" width="40.218" height="39.546" x="6" y="8.468" color-interpolation-filters="sRGB" filterUnits="userSpaceOnUse"><feFlood flood-opacity="0" result="BackgroundImageFix"></feFlood><feColorMatrix in="SourceAlpha" result="hardAlpha" values="0 0 0 0 0 0 0 0 0 0 0 0 0 0 0 0 0 0 127 0"></feColorMatrix><feOffset></feOffset><feGaussianBlur stdDeviation="5"></feGaussianBlur><feComposite in2="hardAlpha" operator="out"></feComposite><feColorMatrix values="0 0 0 0 0 0 0 0 0 0 0 0 0 0 0 0 0 0 0.2 0"></feColorMatrix><feBlend in2="BackgroundImageFix" result="effect1_dropShadow_1296_5165"></feBlend><feBlend in="SourceGraphic" in2="effect1_dropShadow_1296_5165" result="shape"></feBlend></filter><filter id="f" width="44.748" height="43.927" x="11" y="1.985" color-interpolation-filters="sRGB" filterUnits="userSpaceOnUse"><feFlood flood-opacity="0" result="BackgroundImageFix"></feFlood><feColorMatrix in="SourceAlpha" result="hardAlpha" values="0 0 0 0 0 0 0 0 0 0 0 0 0 0 0 0 0 0 127 0"></feColorMatrix><feOffset dy="2"></feOffset><feGaussianBlur stdDeviation="5"></feGaussianBlur><feComposite in2="hardAlpha" operator="out"></feComposite><feColorMatrix values="0 0 0 0 0 0 0 0 0 0 0 0 0 0 0 0 0 0 0.2 0"></feColorMatrix><feBlend in2="BackgroundImageFix" result="effect1_dropShadow_1296_5165"></feBlend><feBlend in="SourceGraphic" in2="effect1_dropShadow_1296_5165" result="shape"></feBlend></filter></defs></svg>