<svg width="121" height="52" viewBox="0 0 121 52" fill="none" xmlns="http://www.w3.org/2000/svg"><rect x="0.0244141" width="120" height="52" rx="8" fill="url(#paint0_linear_673_10974)"></rect><path fill-rule="evenodd" clip-rule="evenodd" d="M40.0467 14.8476C38.4806 13.4848 36.6401 12.4585 34.6401 11.8468C32.8437 11.2973 30.9676 11.1 29.1074 11.2555C31.1097 12.6793 32.8482 14.3982 34.2976 16.3882L40.0467 14.8476ZM24.007 12.6225C22.3182 13.418 20.7921 14.527 19.5111 15.901C18.0849 17.4308 17.0041 19.2398 16.3293 21.2031L22.0784 19.6626C22.3386 17.2146 22.9848 14.8567 24.007 12.6225ZM26.6166 12.143C28.7376 13.4334 30.5734 15.055 32.0937 16.9779L24.2907 19.0687C24.6458 16.6433 25.4249 14.3212 26.6166 12.143ZM36.6477 39.3771C38.3365 38.5817 39.8625 37.4727 41.1435 36.0987C42.5698 34.5689 43.6505 32.7599 44.3254 30.7965L38.5762 32.337C38.3161 34.7851 37.6699 37.1429 36.6477 39.3771ZM28.5652 35.0196C30.0855 36.9425 31.9213 38.5641 34.0423 39.8545C35.234 37.6764 36.013 35.3543 36.3682 32.9288L28.5652 35.0196ZM26.0118 40.1534C24.0118 39.5417 22.1713 38.5154 20.6051 37.1525L20.6051 37.1525L26.3543 35.612C27.8036 37.602 29.5422 39.3208 31.5445 40.7447C29.6842 40.9001 27.8082 40.7028 26.0118 40.1534ZM12.1326 27.7821C11.682 26.1005 12.68 24.372 14.3616 23.9214L43.1155 16.2168C44.7971 15.7662 46.5256 16.7642 46.9761 18.4458L48.5246 24.2248C48.9752 25.9063 47.9773 27.6348 46.2957 28.0854L17.5417 35.79C15.8601 36.2406 14.1317 35.2426 13.6811 33.561L12.1326 27.7821ZM23.0634 31.6487L24.5409 31.2528L22.5505 23.8244L20.9837 24.2442L22.147 28.5857L18.2658 24.9845L16.7882 25.3802L18.8003 32.8893L20.367 32.4695L19.1822 28.0475L23.0634 31.6487ZM25.4787 24.7481L27.9643 24.0821L27.5445 22.5153L23.4921 23.6011L24.2824 26.5507L24.7022 28.1174L25.4926 31.0669L29.545 29.981L29.1251 28.4143L26.6395 29.0803L26.269 27.6976L28.5714 27.0807L28.1516 25.5139L25.8492 26.1308L25.4787 24.7481ZM35.438 28.3876L36.9211 27.9793L36.4218 20.3473L34.8033 20.4532L35.0778 24.6482L32.962 21.1387L31.522 21.5226L31.4411 25.62L29.5825 21.8411L28.127 22.5569L31.5122 29.4399L32.9961 29.0314L33.0858 24.4859L35.438 28.3876ZM41.1812 26.8924C42.4548 26.5511 43.3064 25.4502 43.2061 24.2748C43.1305 23.3887 42.4527 22.3869 40.7772 22.233C39.9811 22.1598 39.2281 22.0498 38.9887 22.0135C38.8148 21.9339 38.7763 21.7703 38.7678 21.6996C38.7557 21.5982 38.7632 21.3403 39.0946 21.1351C39.8538 20.6651 40.7877 21.0735 40.797 21.0777L40.7912 21.075L41.478 19.6055C41.4083 19.573 39.7543 18.8188 38.2407 19.756C37.4716 20.2322 37.0564 21.0509 37.1573 21.8925C37.252 22.6832 37.7784 23.3273 38.531 23.5733L38.592 23.5932L38.6555 23.6034C38.6941 23.6095 39.6131 23.755 40.629 23.8483C40.8448 23.8681 41.552 23.9674 41.59 24.4126C41.6183 24.7446 41.3161 25.1769 40.7613 25.3256C40.1805 25.4812 39.5594 25.3971 39.0997 25.1008L38.2207 26.4639C39.0712 27.0124 40.1503 27.1686 41.1812 26.8924Z" fill="url(#paint1_linear_673_10974)"></path><defs><linearGradient id="paint0_linear_673_10974" x1="0.0244159" y1="-2.49399" x2="120.024" y2="-2.49399" gradientUnits="userSpaceOnUse"><stop stop-color="#0032DA" stop-opacity="0.4"></stop><stop offset="1" stop-color="#0032DA" stop-opacity="0"></stop></linearGradient><linearGradient id="paint1_linear_673_10974" x1="30.3286" y1="11.2041" x2="30.3286" y2="40.796" gradientUnits="userSpaceOnUse"><stop stop-color="#78CEFF"></stop><stop offset="1" stop-color="#3E52FF"></stop></linearGradient></defs></svg>