<svg width="121" height="52" viewBox="0 0 121 52" fill="none" xmlns="http://www.w3.org/2000/svg"><rect x="0.0244141" width="120" height="52" rx="8" fill="url(#paint0_linear_673_10991)"></rect><path d="M36.918 15.3801L34.2391 9.79026C34.1796 9.68321 34.0941 9.59434 33.9911 9.53255C33.8881 9.47076 33.7713 9.43823 33.6524 9.43823C33.5335 9.43823 33.4167 9.47076 33.3137 9.53255C33.2107 9.59434 33.1251 9.68321 33.0656 9.79026L30.3862 15.3801C30.3452 15.4657 30.2848 15.5397 30.2103 15.5958C30.1357 15.6519 30.0492 15.6883 29.9582 15.702L23.9682 16.5987C23.8472 16.6144 23.733 16.6659 23.6394 16.7471C23.5457 16.8283 23.4765 16.9359 23.44 17.0569C23.4021 17.1744 23.3975 17.3009 23.4266 17.4211C23.4558 17.5414 23.5175 17.6504 23.6045 17.7352L27.9384 22.0861C28.0053 22.1533 28.0554 22.2365 28.0843 22.3284C28.1132 22.4203 28.1199 22.5182 28.104 22.6135L27.0796 28.7573C27.0584 28.8791 27.071 29.0046 27.116 29.1192C27.1609 29.2338 27.2364 29.3327 27.3334 29.4043C27.4327 29.4812 27.5509 29.5272 27.6743 29.5369C27.7977 29.5467 27.9213 29.5198 28.0306 29.4593L33.3877 26.559C33.4689 26.5151 33.5591 26.4921 33.6507 26.4921C33.7422 26.4921 33.8324 26.5151 33.9136 26.559L39.2708 29.4593C39.3799 29.5202 39.5036 29.5473 39.6271 29.5376C39.7506 29.5278 39.8689 29.4816 39.9679 29.4043C40.0651 29.3326 40.1406 29.2336 40.1855 29.1189C40.2305 29.0042 40.2431 28.8786 40.2218 28.7567L39.1996 22.6147C39.1837 22.5194 39.1905 22.4215 39.2193 22.3296C39.2482 22.2377 39.2983 22.1545 39.3652 22.0873L43.6991 17.7364C43.7861 17.6515 43.8479 17.5425 43.877 17.4223C43.9062 17.302 43.9015 17.1756 43.8636 17.0581C43.8271 16.9371 43.758 16.8297 43.6645 16.7485C43.5709 16.6672 43.4569 16.6157 43.336 16.5999L37.346 15.702C37.2549 15.6883 37.1684 15.6519 37.0939 15.5958C37.0194 15.5397 36.959 15.4657 36.918 15.3801Z" fill="url(#paint1_linear_673_10991)"></path><path d="M35.6612 36.601C35.7139 36.5012 35.7928 36.419 35.8888 36.3643L37.4812 35.4587L35.8877 34.5513C35.7917 34.4965 35.7127 34.4144 35.66 34.3146L34.7887 32.6584L33.9162 34.3157C33.8636 34.4156 33.7846 34.4977 33.6886 34.5525L32.0962 35.4587L33.6897 36.366C33.7857 36.4208 33.8647 36.503 33.9174 36.6028L34.7887 38.2589L35.6612 36.601Z" fill="#3E52FF"></path><path d="M12.423 42.5617C12.5104 42.5599 12.5949 42.5289 12.664 42.4733C12.7331 42.4176 12.7831 42.3403 12.8066 42.2527C14.8554 35.1412 19.8034 29.784 26.0786 27.8355L26.7979 23.5147C23.0281 25.5056 19.6974 28.29 17.0175 31.6911C16.9207 31.8084 16.7835 31.8816 16.6353 31.8951C16.4872 31.9085 16.3399 31.8611 16.2249 31.7631C16.1099 31.665 16.0364 31.524 16.0201 31.3703C16.0038 31.2166 16.046 31.0623 16.1377 30.9406C18.9776 27.3351 22.5226 24.3992 26.5373 22.328L24.2318 20.0107C20.4135 22.3517 12.4145 28.8299 12.0246 42.1243C12.0229 42.1803 12.0318 42.2361 12.051 42.2885C12.0701 42.3408 12.099 42.3888 12.1361 42.4294C12.1731 42.4701 12.2176 42.5028 12.2668 42.5255C12.3161 42.5482 12.3692 42.5605 12.423 42.5617Z" fill="url(#paint2_linear_673_10991)"></path><path d="M19.7266 11.2328L18.8541 9.57495L17.9817 11.2322C17.929 11.3321 17.85 11.4142 17.754 11.469L16.1616 12.3752L17.7552 13.2825C17.8512 13.3373 17.9301 13.4195 17.9828 13.5193L18.8541 15.1754L19.7266 13.5181C19.7793 13.4183 19.8583 13.3361 19.9543 13.2814L21.5467 12.3752L19.9531 11.4678C19.8578 11.4133 19.7792 11.3319 19.7266 11.2328Z" fill="#77CCFF"></path><defs><linearGradient id="paint0_linear_673_10991" x1="0.0244159" y1="-2.49399" x2="120.024" y2="-2.49399" gradientUnits="userSpaceOnUse"><stop stop-color="#0032DA" stop-opacity="0.4"></stop><stop offset="1" stop-color="#0032DA" stop-opacity="0"></stop></linearGradient><linearGradient id="paint1_linear_673_10991" x1="33.6518" y1="9.43823" x2="33.6518" y2="29.5395" gradientUnits="userSpaceOnUse"><stop stop-color="#78CEFF"></stop><stop offset="1" stop-color="#3C4FFF"></stop></linearGradient><linearGradient id="paint2_linear_673_10991" x1="26.7979" y1="21.5191" x2="13.3479" y2="42.5617" gradientUnits="userSpaceOnUse"><stop stop-color="#629EFF"></stop><stop offset="1" stop-color="#2219D1"></stop></linearGradient></defs></svg>