<svg width="33" height="32" viewBox="0 0 33 32" fill="none" xmlns="http://www.w3.org/2000/svg"><path fill-rule="evenodd" clip-rule="evenodd" d="M9.11914 5.7959C4.10996 5.7959 0.0390625 7.82378 0.0390625 10.3208C0.0390625 12.8178 4.10996 14.8457 9.11914 14.8457C14.1283 14.8457 18.1992 12.8178 18.1992 10.3208C18.1992 7.82378 14.1283 5.7959 9.11914 5.7959ZM9.11914 17.1159C5.88794 17.2566 2.69931 16.3372 0.0390625 14.4978V15.9808C0.0390625 18.9924 4.5791 20.5058 9.11914 20.5058C13.6592 20.5058 18.1992 18.9924 18.1992 15.9808V14.4978C15.539 16.3372 12.3503 17.2566 9.11914 17.1159ZM0.0390625 20.1962C2.69931 22.0357 5.88794 22.955 9.11914 22.8143C12.3503 22.955 15.539 22.0357 18.1992 20.1962V21.6793C18.1992 24.6909 13.6592 26.2042 9.11914 26.2042C4.5791 26.2042 0.0390625 24.6909 0.0390625 21.6793V20.1962Z" fill="url(#paint0_linear_1176_6326)"></path><defs><linearGradient id="paint0_linear_1176_6326" x1="9.11914" y1="6.57195" x2="9.11914" y2="25.4281" gradientUnits="userSpaceOnUse"><stop stop-color="#84A1FF"></stop><stop offset="1" stop-color="#372DFF"></stop></linearGradient></defs></svg>